<svg width="40" height="40" viewBox="0 0 40 40" fill="none" xmlns="http://www.w3.org/2000/svg">
<rect width="40" height="40" rx="7" fill="#FF4401"/>
<g clip-path="url(#clip0_1_1729)">
<path d="M29.3441 17.5198L20.8801 10.3395C20.639 10.121 20.3253 10 20 10C19.6746 10 19.3609 10.121 19.1198 10.3395L10.6567 17.5199C10.4501 17.7071 10.2849 17.9355 10.1719 18.1905C10.0588 18.4454 10.0004 18.7211 10.0004 19V29.3357C10.0004 29.5119 10.0704 29.6808 10.195 29.8054C10.3195 29.93 10.4885 30 10.6646 30L16.0004 30C16.5527 30 17.0004 29.5523 17.0004 29V25C17.0004 24.436 17.5525 23.9788 18.1167 23.9788H21.8832C22.4475 23.9788 23.0004 24.436 23.0004 25V29C23.0004 29.5523 23.4481 30 24.0004 30H29.3362C29.5124 30 29.6813 29.93 29.8059 29.8054C29.9305 29.6808 30.0004 29.5119 30.0004 29.3357V19C30.0004 18.7211 29.942 18.4454 29.8289 18.1904C29.7159 17.9355 29.5508 17.7071 29.3441 17.5198Z" fill="white"/>
</g>
<defs>
<clipPath id="clip0_1_1729">
<rect width="20" height="20" fill="white" transform="translate(10 10)"/>
</clipPath>
</defs>
</svg>
