<svg width="281" height="90" viewBox="0 0 281 90" fill="none" xmlns="http://www.w3.org/2000/svg">
<path d="M80.1562 0H9.84375C4.4072 0 0 4.4072 0 9.84375V80.1562C0 85.5928 4.4072 90 9.84375 90H80.1562C85.5928 90 90 85.5928 90 80.1562V9.84375C90 4.4072 85.5928 0 80.1562 0Z" fill="#092E20"/>
<path d="M65.5231 33.1165V56.3991C65.5231 64.4217 64.936 68.2692 63.1754 71.5954C61.5445 74.7918 59.3922 76.8132 54.9576 79.0309L45.6307 74.5959C50.066 72.5091 52.2183 70.6831 53.5876 67.8776C55.0227 65.0085 55.4797 61.682 55.4797 52.9429V33.1165H65.5231V33.1165ZM49.545 17.6056V64.0958C44.3928 65.0739 40.61 65.4652 36.5013 65.4652C24.2399 65.4652 17.8484 59.9221 17.8484 49.2908C17.8484 39.0512 24.6315 32.3993 35.1313 32.3993C36.7618 32.3993 38.0011 32.5294 39.5012 32.9207V17.6063H49.5453L49.545 17.6056ZM36.11 40.4859C31.0229 40.4859 28.0877 43.6166 28.0877 49.0947C28.0877 54.4433 30.8925 57.3778 36.045 57.3778C37.1531 57.3778 38.0665 57.3128 39.5012 57.1177V41.0073C38.3273 40.6164 37.3493 40.4859 36.11 40.4859V40.4859ZM65.5231 17.659V27.964H55.4797V17.6593H65.5231V17.659Z" fill="#FFFFFD"/>
<path d="M108.781 41.5V87H99.4062V41.5H108.781ZM126.906 60.9375V68.25H106.219V60.9375H126.906ZM129.094 41.5V48.8438H106.219V41.5H129.094ZM131.844 70.4375V69.7812C131.844 67.3021 132.198 65.0208 132.906 62.9375C133.615 60.8333 134.646 59.0104 136 57.4688C137.354 55.9271 139.021 54.7292 141 53.875C142.979 53 145.25 52.5625 147.812 52.5625C150.375 52.5625 152.656 53 154.656 53.875C156.656 54.7292 158.333 55.9271 159.688 57.4688C161.062 59.0104 162.104 60.8333 162.812 62.9375C163.521 65.0208 163.875 67.3021 163.875 69.7812V70.4375C163.875 72.8958 163.521 75.1771 162.812 77.2812C162.104 79.3646 161.062 81.1875 159.688 82.75C158.333 84.2917 156.667 85.4896 154.688 86.3438C152.708 87.1979 150.438 87.625 147.875 87.625C145.312 87.625 143.031 87.1979 141.031 86.3438C139.052 85.4896 137.375 84.2917 136 82.75C134.646 81.1875 133.615 79.3646 132.906 77.2812C132.198 75.1771 131.844 72.8958 131.844 70.4375ZM140.844 69.7812V70.4375C140.844 71.8542 140.969 73.1771 141.219 74.4062C141.469 75.6354 141.865 76.7188 142.406 77.6562C142.969 78.5729 143.698 79.2917 144.594 79.8125C145.49 80.3333 146.583 80.5938 147.875 80.5938C149.125 80.5938 150.198 80.3333 151.094 79.8125C151.99 79.2917 152.708 78.5729 153.25 77.6562C153.792 76.7188 154.188 75.6354 154.438 74.4062C154.708 73.1771 154.844 71.8542 154.844 70.4375V69.7812C154.844 68.4062 154.708 67.1146 154.438 65.9062C154.188 64.6771 153.781 63.5938 153.219 62.6562C152.677 61.6979 151.958 60.9479 151.062 60.4062C150.167 59.8646 149.083 59.5938 147.812 59.5938C146.542 59.5938 145.458 59.8646 144.562 60.4062C143.688 60.9479 142.969 61.6979 142.406 62.6562C141.865 63.5938 141.469 64.6771 141.219 65.9062C140.969 67.1146 140.844 68.4062 140.844 69.7812ZM178.406 60.5625V87H169.406V53.1875H177.875L178.406 60.5625ZM188.594 52.9688L188.438 61.3125C188 61.25 187.469 61.1979 186.844 61.1562C186.24 61.0938 185.688 61.0625 185.188 61.0625C183.917 61.0625 182.812 61.2292 181.875 61.5625C180.958 61.875 180.188 62.3438 179.562 62.9688C178.958 63.5938 178.5 64.3542 178.188 65.25C177.896 66.1458 177.729 67.1667 177.688 68.3125L175.875 67.75C175.875 65.5625 176.094 63.5521 176.531 61.7188C176.969 59.8646 177.604 58.25 178.438 56.875C179.292 55.5 180.333 54.4375 181.562 53.6875C182.792 52.9375 184.198 52.5625 185.781 52.5625C186.281 52.5625 186.792 52.6042 187.312 52.6875C187.833 52.75 188.26 52.8438 188.594 52.9688ZM212.844 78.9062V53.1875H221.844V87H213.375L212.844 78.9062ZM213.844 71.9688L216.5 71.9062C216.5 74.1562 216.24 76.25 215.719 78.1875C215.198 80.1042 214.417 81.7708 213.375 83.1875C212.333 84.5833 211.021 85.6771 209.438 86.4688C207.854 87.2396 205.99 87.625 203.844 87.625C202.198 87.625 200.677 87.3958 199.281 86.9375C197.906 86.4583 196.719 85.7188 195.719 84.7188C194.74 83.6979 193.969 82.3958 193.406 80.8125C192.865 79.2083 192.594 77.2812 192.594 75.0312V53.1875H201.594V75.0938C201.594 76.0938 201.708 76.9375 201.938 77.625C202.188 78.3125 202.531 78.875 202.969 79.3125C203.406 79.75 203.917 80.0625 204.5 80.25C205.104 80.4375 205.771 80.5312 206.5 80.5312C208.354 80.5312 209.812 80.1562 210.875 79.4062C211.958 78.6562 212.719 77.6354 213.156 76.3438C213.615 75.0312 213.844 73.5729 213.844 71.9688ZM237.719 60.1875V87H228.688V53.1875H237.156L237.719 60.1875ZM236.469 68.9062H233.969C233.969 66.5521 234.25 64.3854 234.812 62.4062C235.396 60.4062 236.24 58.6771 237.344 57.2188C238.469 55.7396 239.854 54.5938 241.5 53.7812C243.146 52.9688 245.052 52.5625 247.219 52.5625C248.719 52.5625 250.094 52.7917 251.344 53.25C252.594 53.6875 253.667 54.3854 254.562 55.3438C255.479 56.2812 256.188 57.5104 256.688 59.0312C257.188 60.5312 257.438 62.3333 257.438 64.4375V87H248.438V65.4375C248.438 63.8958 248.229 62.7083 247.812 61.875C247.396 61.0417 246.802 60.4583 246.031 60.125C245.281 59.7917 244.375 59.625 243.312 59.625C242.146 59.625 241.125 59.8646 240.25 60.3438C239.396 60.8229 238.688 61.4896 238.125 62.3438C237.562 63.1771 237.146 64.1562 236.875 65.2812C236.604 66.4062 236.469 67.6146 236.469 68.9062ZM256.594 67.875L253.375 68.2812C253.375 66.0729 253.646 64.0208 254.188 62.125C254.75 60.2292 255.573 58.5625 256.656 57.125C257.76 55.6875 259.125 54.5729 260.75 53.7812C262.375 52.9688 264.25 52.5625 266.375 52.5625C268 52.5625 269.479 52.8021 270.812 53.2812C272.146 53.7396 273.281 54.4792 274.219 55.5C275.177 56.5 275.906 57.8125 276.406 59.4375C276.927 61.0625 277.188 63.0521 277.188 65.4062V87H268.156V65.4062C268.156 63.8438 267.948 62.6562 267.531 61.8438C267.135 61.0104 266.552 60.4375 265.781 60.125C265.031 59.7917 264.135 59.625 263.094 59.625C262.01 59.625 261.062 59.8438 260.25 60.2812C259.438 60.6979 258.76 61.2812 258.219 62.0312C257.677 62.7812 257.271 63.6562 257 64.6562C256.729 65.6354 256.594 66.7083 256.594 67.875Z" fill="black"/>
</svg>
